<svg width="126" height="47" viewBox="0 0 126 47" fill="none" xmlns="http://www.w3.org/2000/svg">
<rect width="125.83" height="46.3644" rx="6.9984" fill="#090909"/>
<path d="M29.0729 23.9889C29.098 22.03 30.146 20.1764 31.8084 19.1504C30.7596 17.6468 29.003 16.6934 27.1755 16.636C25.2263 16.4306 23.3366 17.807 22.3433 17.807C21.3308 17.807 19.8014 16.6564 18.1546 16.6905C16.008 16.7601 14.0069 17.9853 12.9625 19.8693C10.7176 23.7712 12.3921 29.5058 14.5426 32.6598C15.6185 34.2043 16.876 35.9294 18.5213 35.8683C20.1314 35.8012 20.7327 34.8376 22.6762 34.8376C24.6017 34.8376 25.1658 35.8683 26.8446 35.8294C28.5722 35.8012 29.6608 34.2781 30.6989 32.719C31.472 31.6185 32.0669 30.4022 32.4615 29.1152C30.4312 28.2532 29.0753 26.2019 29.0729 23.9889Z" fill="white"/>
<path d="M25.902 14.5618C26.844 13.4265 27.3081 11.9674 27.1958 10.4941C25.7566 10.6459 24.4272 11.3364 23.4725 12.4281C22.5389 13.4947 22.053 14.9282 22.1449 16.3452C23.5846 16.36 24.9999 15.6882 25.902 14.5618Z" fill="white"/>
<path d="M86.5211 21.0214V23.3952H85.039V24.9519H86.5211V30.2412C86.5211 32.0473 87.335 32.7697 89.3825 32.7697C89.7424 32.7697 90.085 32.7267 90.3849 32.6751V31.1356C90.1279 31.1614 89.9651 31.1786 89.6824 31.1786C88.7657 31.1786 88.3631 30.7486 88.3631 29.7681V24.9519H90.3849V23.3952H88.3631V21.0214H86.5211Z" fill="white"/>
<path d="M95.6009 32.8987C98.3252 32.8987 99.9958 31.0668 99.9958 28.0308C99.9958 25.0121 98.3166 23.1716 95.6009 23.1716C92.8765 23.1716 91.1974 25.0121 91.1974 28.0308C91.1974 31.0668 92.868 32.8987 95.6009 32.8987ZM95.6009 31.256C93.9988 31.256 93.0993 30.0778 93.0993 28.0308C93.0993 26.0011 93.9988 24.8142 95.6009 24.8142C97.1943 24.8142 98.1024 26.0011 98.1024 28.0308C98.1024 30.0692 97.1943 31.256 95.6009 31.256Z" fill="white"/>
<path d="M101.425 32.7181H103.267V27.188C103.267 25.8721 104.252 24.9863 105.649 24.9863C105.974 24.9863 106.522 25.0465 106.677 25.0981V23.2748C106.48 23.2232 106.128 23.1974 105.854 23.1974C104.638 23.1974 103.601 23.8682 103.336 24.7884H103.198V23.3522H101.425V32.7181Z" fill="white"/>
<path d="M111.25 24.7454C112.612 24.7454 113.503 25.7001 113.546 27.1708H108.834C108.937 25.7087 109.888 24.7454 111.25 24.7454ZM113.538 30.1896C113.195 30.9206 112.432 31.3248 111.319 31.3248C109.845 31.3248 108.894 30.2842 108.834 28.6415V28.5383H115.422V27.8932C115.422 24.9519 113.855 23.1716 111.259 23.1716C108.629 23.1716 106.958 25.0723 106.958 28.0652C106.958 31.0582 108.594 32.8987 111.267 32.8987C113.4 32.8987 114.891 31.8667 115.311 30.1896H113.538Z" fill="white"/>
<path d="M74.4421 29.2594C74.5842 31.5593 76.4933 33.0301 79.3347 33.0301C82.3715 33.0301 84.2717 31.488 84.2717 29.0276C84.2717 27.0933 83.1884 26.0236 80.5601 25.4085L79.1483 25.0608C77.4789 24.6686 76.8041 24.1427 76.8041 23.2245C76.8041 22.0657 77.8518 21.308 79.4235 21.308C80.9153 21.308 81.9453 22.0479 82.1318 23.2334H84.0675C83.9521 21.0673 82.0519 19.543 79.4502 19.543C76.6531 19.543 74.7884 21.0673 74.7884 23.3582C74.7884 25.248 75.8451 26.3712 78.1626 26.915L79.8142 27.3161C81.5102 27.7173 82.2561 28.3056 82.2561 29.2862C82.2561 30.4272 81.084 31.2562 79.4857 31.2562C77.7719 31.2562 76.5821 30.4807 76.4134 29.2594H74.4421Z" fill="white"/>
<path d="M55.3617 23.1974C54.0938 23.1974 52.9972 23.8338 52.4318 24.9003H52.2947V23.3522H50.5213V35.8315H52.3632V31.299H52.5089C52.9972 32.2881 54.0509 32.8729 55.3788 32.8729C57.7348 32.8729 59.234 31.0066 59.234 28.0308C59.234 25.0551 57.7348 23.1974 55.3617 23.1974ZM54.8391 31.213C53.297 31.213 52.329 29.9918 52.329 28.0394C52.329 26.0785 53.297 24.8573 54.8477 24.8573C56.4069 24.8573 57.3407 26.0527 57.3407 28.0308C57.3407 30.0176 56.4069 31.213 54.8391 31.213Z" fill="white"/>
<path d="M65.6792 23.1974C64.4113 23.1974 63.3147 23.8338 62.7493 24.9003H62.6122V23.3522H60.8388V35.8315H62.6807V31.299H62.8264C63.3147 32.2881 64.3684 32.8729 65.6963 32.8729C68.0523 32.8729 69.5515 31.0066 69.5515 28.0308C69.5515 25.0551 68.0523 23.1974 65.6792 23.1974ZM65.1566 31.213C63.6145 31.213 62.6465 29.9918 62.6465 28.0394C62.6465 26.0785 63.6145 24.8573 65.1652 24.8573C66.7244 24.8573 67.6582 26.0527 67.6582 28.0308C67.6582 30.0176 66.7244 31.213 65.1566 31.213Z" fill="white"/>
<path d="M47.2166 32.7181H49.3299L44.7037 19.855H42.5637L37.9375 32.7181H39.9798L41.1608 29.304H46.0445L47.2166 32.7181ZM43.5316 22.1905H43.6825L45.5384 27.6281H41.6669L43.5316 22.1905Z" fill="white"/>
<path d="M37.8867 10.7824V15.8669H39.7153C41.2246 15.8669 42.0985 14.9331 42.0985 13.3088C42.0985 11.7091 41.2176 10.7824 39.7153 10.7824H37.8867ZM38.6729 11.5012H39.6276C40.677 11.5012 41.2983 12.1707 41.2983 13.3193C41.2983 14.4856 40.6876 15.1481 39.6276 15.1481H38.6729V11.5012Z" fill="white"/>
<path d="M44.7751 15.9409C45.8913 15.9409 46.5757 15.1904 46.5757 13.9465C46.5757 12.7098 45.8878 11.9557 44.7751 11.9557C43.659 11.9557 42.9711 12.7098 42.9711 13.9465C42.9711 15.1904 43.6555 15.9409 44.7751 15.9409ZM44.7751 15.2679C44.1188 15.2679 43.7503 14.7851 43.7503 13.9465C43.7503 13.115 44.1188 12.6287 44.7751 12.6287C45.428 12.6287 45.8 13.115 45.8 13.9465C45.8 14.7816 45.428 15.2679 44.7751 15.2679Z" fill="white"/>
<path d="M52.4041 12.0297H51.6495L50.9686 14.9578H50.9089L50.1227 12.0297H49.3997L48.6135 14.9578H48.5573L47.8729 12.0297H47.1078L48.1607 15.8669H48.9364L49.7226 13.041H49.7823L50.572 15.8669H51.3547L52.4041 12.0297Z" fill="white"/>
<path d="M53.2732 15.8669H54.0278V13.6224C54.0278 13.0234 54.3823 12.6499 54.9403 12.6499C55.4984 12.6499 55.7652 12.9564 55.7652 13.573V15.8669H56.5198V13.3828C56.5198 12.4702 56.0495 11.9557 55.1966 11.9557C54.621 11.9557 54.2419 12.213 54.0559 12.6393H53.9997V12.0297H53.2732V15.8669Z" fill="white"/>
<path d="M57.7082 15.8669H58.4628V10.5322H57.7082V15.8669Z" fill="white"/>
<path d="M61.3009 15.9409C62.417 15.9409 63.1014 15.1904 63.1014 13.9465C63.1014 12.7098 62.4135 11.9557 61.3009 11.9557C60.1848 11.9557 59.4968 12.7098 59.4968 13.9465C59.4968 15.1904 60.1812 15.9409 61.3009 15.9409ZM61.3009 15.2679C60.6445 15.2679 60.276 14.7851 60.276 13.9465C60.276 13.115 60.6445 12.6287 61.3009 12.6287C61.9537 12.6287 62.3258 13.115 62.3258 13.9465C62.3258 14.7816 61.9537 15.2679 61.3009 15.2679Z" fill="white"/>
<path d="M65.3498 15.2925C64.9392 15.2925 64.6409 15.0917 64.6409 14.7464C64.6409 14.4081 64.8795 14.2284 65.406 14.1932L66.3396 14.1333V14.4539C66.3396 14.9296 65.9184 15.2925 65.3498 15.2925ZM65.1568 15.9303C65.6587 15.9303 66.0764 15.7118 66.3045 15.3278H66.3642V15.8669H67.0907V13.2454C67.0907 12.4349 66.5502 11.9557 65.592 11.9557C64.7251 11.9557 64.1074 12.3786 64.0301 13.0375H64.7602C64.8444 12.7662 65.1357 12.6111 65.5569 12.6111C66.0729 12.6111 66.3396 12.8401 66.3396 13.2454V13.5766L65.3042 13.6365C64.3952 13.6928 63.8827 14.091 63.8827 14.7816C63.8827 15.4828 64.4197 15.9303 65.1568 15.9303Z" fill="white"/>
<path d="M69.6515 15.9303C70.178 15.9303 70.6237 15.6801 70.8519 15.2608H70.9115V15.8669H71.6346V10.5322H70.88V12.6393H70.8238C70.6167 12.2165 70.1745 11.9663 69.6515 11.9663C68.6863 11.9663 68.0651 12.7344 68.0651 13.9465C68.0651 15.1622 68.6793 15.9303 69.6515 15.9303ZM69.8656 12.6464C70.4974 12.6464 70.894 13.1502 70.894 13.9501C70.894 14.7534 70.5009 15.2503 69.8656 15.2503C69.2268 15.2503 68.8442 14.7605 68.8442 13.9465C68.8442 13.1396 69.2303 12.6464 69.8656 12.6464Z" fill="white"/>
<path d="M76.528 15.9409C77.6441 15.9409 78.3285 15.1904 78.3285 13.9465C78.3285 12.7098 77.6406 11.9557 76.528 11.9557C75.4119 11.9557 74.7239 12.7098 74.7239 13.9465C74.7239 15.1904 75.4084 15.9409 76.528 15.9409ZM76.528 15.2679C75.8717 15.2679 75.5031 14.7851 75.5031 13.9465C75.5031 13.115 75.8717 12.6287 76.528 12.6287C77.1808 12.6287 77.5529 13.115 77.5529 13.9465C77.5529 14.7816 77.1808 15.2679 76.528 15.2679Z" fill="white"/>
<path d="M79.3274 15.8669H80.0821V13.6224C80.0821 13.0234 80.4366 12.6499 80.9946 12.6499C81.5527 12.6499 81.8194 12.9564 81.8194 13.573V15.8669H82.574V13.3828C82.574 12.4702 82.1037 11.9557 81.2508 11.9557C80.6752 11.9557 80.2962 12.213 80.1101 12.6393H80.054V12.0297H79.3274V15.8669Z" fill="white"/>
<path d="M86.0495 11.0749V12.0474H85.4423V12.6851H86.0495V14.8521C86.0495 15.592 86.3829 15.888 87.2218 15.888C87.3692 15.888 87.5096 15.8704 87.6324 15.8493V15.2185C87.5271 15.2291 87.4605 15.2362 87.3446 15.2362C86.9691 15.2362 86.8041 15.06 86.8041 14.6583V12.6851H87.6324V12.0474H86.8041V11.0749H86.0495Z" fill="white"/>
<path d="M88.6454 15.8669H89.4V13.6259C89.4 13.0445 89.744 12.6534 90.3617 12.6534C90.8952 12.6534 91.1795 12.9635 91.1795 13.5766V15.8669H91.9341V13.3898C91.9341 12.4772 91.4322 11.9593 90.6179 11.9593C90.0423 11.9593 89.6387 12.2165 89.4526 12.6464H89.393V10.5322H88.6454V15.8669Z" fill="white"/>
<path d="M94.6563 12.6005C95.2144 12.6005 95.5794 12.9917 95.597 13.5942H93.6666C93.7087 12.9952 94.0983 12.6005 94.6563 12.6005ZM95.5935 14.8309C95.4531 15.1305 95.1407 15.2961 94.6844 15.2961C94.0807 15.2961 93.6911 14.8697 93.6666 14.1967V14.1544H96.3656V13.8902C96.3656 12.6851 95.7233 11.9557 94.6598 11.9557C93.5823 11.9557 92.8979 12.7344 92.8979 13.9606C92.8979 15.1868 93.5683 15.9409 94.6633 15.9409C95.5373 15.9409 96.148 15.518 96.32 14.8309H95.5935Z" fill="white"/>
</svg>
