<svg width="124" height="47" viewBox="0 0 124 47" fill="none" xmlns="http://www.w3.org/2000/svg">
<rect x="0.830078" width="122.86" height="46.3644" rx="6.9984" fill="#090909"/>
<g filter="url(#filter0_ii_2473_35497)">
<path d="M12.9804 11.6253C12.7116 11.9109 12.5527 12.3542 12.5527 12.9281V33.436C12.5527 34.011 12.7116 34.4533 12.9804 34.7389L13.0488 34.8057L24.4923 23.3175V23.1821V23.0467L13.0488 11.5576L12.9804 11.6253Z" fill="url(#paint0_linear_2473_35497)"/>
<path d="M28.3061 27.1479L24.4922 23.3173V23.1819V23.0465L28.307 19.2168L28.3929 19.2659L32.9125 21.8438C34.2029 22.5801 34.2029 23.7846 32.9125 24.5218L28.3929 27.0997L28.3061 27.1479Z" fill="url(#paint1_linear_2473_35497)"/>
<g filter="url(#filter1_i_2473_35497)">
<path d="M28.393 27.0985L24.4914 23.1816L12.9805 34.7384C13.4054 35.1909 14.1083 35.2466 14.8999 34.7959L28.393 27.0985Z" fill="url(#paint2_linear_2473_35497)"/>
</g>
<path d="M28.393 19.265L14.8999 11.5685C14.1083 11.1169 13.4054 11.1735 12.9805 11.626L24.4923 23.1828L28.393 19.265Z" fill="url(#paint3_linear_2473_35497)"/>
</g>
<path d="M62.9392 24.3321C60.8874 24.3321 59.215 25.892 59.215 28.0405C59.215 30.1759 60.8874 31.7489 62.9392 31.7489C64.9919 31.7489 66.6643 30.1759 66.6643 28.0405C66.6634 25.892 64.9911 24.3321 62.9392 24.3321ZM62.9392 30.2892C61.8147 30.2892 60.8455 29.3624 60.8455 28.0414C60.8455 26.7064 61.8156 25.7935 62.9392 25.7935C64.0637 25.7935 65.0329 26.7064 65.0329 28.0414C65.0329 29.3615 64.0637 30.2892 62.9392 30.2892ZM54.8138 24.3321C52.7619 24.3321 51.0896 25.892 51.0896 28.0405C51.0896 30.1759 52.7619 31.7489 54.8138 31.7489C56.8665 31.7489 58.5389 30.1759 58.5389 28.0405C58.5389 25.892 56.8665 24.3321 54.8138 24.3321ZM54.8138 30.2892C53.6893 30.2892 52.7201 29.3624 52.7201 28.0414C52.7201 26.7064 53.6902 25.7935 54.8138 25.7935C55.9383 25.7935 56.9075 26.7064 56.9075 28.0414C56.9084 29.3615 55.9383 30.2892 54.8138 30.2892ZM45.1495 25.4709V27.0439H48.9165C48.8039 27.9289 48.509 28.575 48.0589 29.024C47.511 29.5716 46.6535 30.1759 45.1495 30.1759C42.8307 30.1759 41.0178 28.3073 41.0178 25.9897C41.0178 23.672 42.8307 21.8035 45.1495 21.8035C46.4005 21.8035 47.3139 22.2952 47.9882 22.9274L49.0988 21.8174C48.1566 20.9184 46.9065 20.2305 45.1495 20.2305C41.9731 20.2305 39.3027 22.8149 39.3027 25.9897C39.3027 29.1644 41.9731 31.7489 45.1495 31.7489C46.8637 31.7489 48.1575 31.1865 49.1686 30.1332C50.2085 29.0938 50.5321 27.6324 50.5321 26.4527C50.5321 26.0882 50.5042 25.7508 50.4475 25.47L45.1495 25.4709ZM84.6756 26.6925C84.3668 25.8641 83.4246 24.3321 81.4993 24.3321C79.5879 24.3321 77.9993 25.8353 77.9993 28.0405C77.9993 30.1192 79.5739 31.7489 81.6816 31.7489C83.3819 31.7489 84.3659 30.7095 84.7742 30.1053L83.5092 29.2621C83.0879 29.8803 82.5112 30.2875 81.6816 30.2875C80.8528 30.2875 80.2622 29.9082 79.8827 29.1636L84.844 27.1127L84.6756 26.6925ZM79.6158 27.9289C79.5739 26.4954 80.7263 25.7656 81.556 25.7656C82.2024 25.7656 82.7503 26.0891 82.9335 26.5521L79.6158 27.9289ZM75.5827 31.5248H77.2124V20.6246H75.5827V31.5248ZM72.9115 25.1613H72.8556C72.4901 24.7254 71.787 24.3321 70.9024 24.3321C69.0468 24.3321 67.3465 25.9618 67.3465 28.0553C67.3465 30.134 69.0468 31.7498 70.9024 31.7498C71.7878 31.7498 72.4901 31.3565 72.8556 30.9075H72.9115V31.4411C72.9115 32.8597 72.1525 33.6183 70.9303 33.6183C69.9323 33.6183 69.3138 32.9025 69.0608 32.2982L67.6414 32.8885C68.0488 33.8712 69.1306 35.0797 70.9303 35.0797C72.8417 35.0797 74.4582 33.9558 74.4582 31.2161V24.5579H72.9124L72.9115 25.1613ZM71.0428 30.2892C69.9183 30.2892 68.977 29.3475 68.977 28.0553C68.977 26.7483 69.9183 25.7935 71.0428 25.7935C72.1525 25.7935 73.024 26.7483 73.024 28.0553C73.024 29.3475 72.1525 30.2892 71.0428 30.2892ZM92.3125 20.6246H88.4121V31.5248H90.0391V27.3953H92.3116C94.1157 27.3953 95.8902 26.0899 95.8902 24.0104C95.8902 21.9308 94.1166 20.6246 92.3125 20.6246ZM92.3544 25.8781H90.0391V22.1418H92.3544C93.5714 22.1418 94.2623 23.1489 94.2623 24.0104C94.2623 24.8544 93.5714 25.8781 92.3544 25.8781ZM102.415 24.3129C101.236 24.3129 100.016 24.8317 99.5106 25.9818L100.955 26.5843C101.264 25.9818 101.84 25.7848 102.443 25.7848C103.285 25.7848 104.14 26.2896 104.154 27.1869V27.2993C103.859 27.1311 103.228 26.8791 102.457 26.8791C100.899 26.8791 99.3134 27.7344 99.3134 29.3327C99.3134 30.7915 100.591 31.7306 102.021 31.7306C103.115 31.7306 103.719 31.2397 104.098 30.6642H104.153V31.5056H105.725V27.3264C105.726 25.3924 104.28 24.3129 102.415 24.3129ZM102.218 30.2866C101.685 30.2866 100.941 30.0198 100.941 29.3606C100.941 28.5192 101.868 28.1966 102.668 28.1966C103.382 28.1966 103.72 28.3509 104.154 28.561C104.028 29.5716 103.158 30.2866 102.218 30.2866ZM111.45 24.551L109.584 29.2769H109.528L107.592 24.551H105.838L108.742 31.156L107.086 34.8303H108.784L113.26 24.551H111.45ZM96.7887 31.5248H98.4157V20.6246H96.7887V31.5248Z" fill="white"/>
<path d="M44.9454 14.1772C44.9454 14.8946 44.7292 15.4657 44.296 15.8921C43.8044 16.3989 43.1629 16.6523 42.375 16.6523C41.6202 16.6523 40.9778 16.3955 40.4505 15.8818C39.9223 15.3672 39.6582 14.7303 39.6582 13.97C39.6582 13.2089 39.9223 12.5719 40.4505 12.0582C40.9778 11.5437 41.6202 11.2868 42.375 11.2868C42.7498 11.2868 43.108 11.3587 43.4479 11.5017C43.7887 11.6456 44.0616 11.8365 44.2655 12.0753L43.8062 12.5274C43.4602 12.1207 42.9834 11.9178 42.3741 11.9178C41.8233 11.9178 41.3474 12.1079 40.9456 12.488C40.5438 12.8681 40.3433 13.3621 40.3433 13.9691C40.3433 14.5762 40.5438 15.0701 40.9456 15.4503C41.3474 15.8304 41.8233 16.0205 42.3741 16.0205C42.9581 16.0205 43.4453 15.8296 43.8349 15.4469C44.0877 15.1977 44.2341 14.851 44.2734 14.4066H42.3741V13.7894H44.9079C44.934 13.9238 44.9454 14.053 44.9454 14.1772Z" fill="white"/>
<path d="M48.9636 12.0317H46.5823V13.6601H48.73V14.2774H46.5823V15.9058H48.9636V16.5376H45.9103V11.4007H48.9636V12.0317Z" fill="white"/>
<path d="M51.7971 16.5376H51.125V12.0317H49.6642V11.4007H53.2579V12.0317H51.7971V16.5376Z" fill="white"/>
<path d="M55.8578 16.5376V11.4007H56.5298V16.5376H55.8578Z" fill="white"/>
<path d="M59.51 16.5376H58.838V12.0317H57.3772V11.4007H60.9708V12.0317H59.51V16.5376Z" fill="white"/>
<path d="M67.7735 15.8741C67.2593 16.3929 66.6204 16.6524 65.856 16.6524C65.0916 16.6524 64.4527 16.3929 63.9393 15.8741C63.4251 15.3553 63.1688 14.72 63.1688 13.9692C63.1688 13.2183 63.4251 12.5831 63.9393 12.0643C64.4527 11.5454 65.0916 11.2852 65.856 11.2852C66.616 11.2852 67.254 11.5463 67.77 12.0677C68.286 12.5891 68.544 13.2226 68.544 13.9692C68.544 14.72 68.2869 15.3553 67.7735 15.8741ZM64.4353 15.4435C64.8223 15.8287 65.2955 16.0205 65.856 16.0205C66.4164 16.0205 66.8906 15.8279 67.2767 15.4435C67.6637 15.0582 67.8581 14.5668 67.8581 13.9692C67.8581 13.3716 67.6637 12.8802 67.2767 12.4949C66.8906 12.1096 66.4164 11.9179 65.856 11.9179C65.2955 11.9179 64.8223 12.1105 64.4353 12.4949C64.0491 12.8802 63.8548 13.3716 63.8548 13.9692C63.8548 14.5668 64.0491 15.0582 64.4353 15.4435Z" fill="white"/>
<path d="M69.4871 16.5376V11.4007H70.3047L72.8463 15.3964H72.875L72.8463 14.4067V11.4007H73.5183V16.5376H72.8166L70.1574 12.3476H70.1286L70.1574 13.3374V16.5376H69.4871Z" fill="white"/>
<path d="M44.9454 14.1772C44.9454 14.8946 44.7292 15.4657 44.296 15.8921C43.8044 16.3989 43.1629 16.6523 42.375 16.6523C41.6202 16.6523 40.9778 16.3955 40.4505 15.8818C39.9223 15.3672 39.6582 14.7303 39.6582 13.97C39.6582 13.2089 39.9223 12.5719 40.4505 12.0582C40.9778 11.5437 41.6202 11.2868 42.375 11.2868C42.7498 11.2868 43.108 11.3587 43.4479 11.5017C43.7887 11.6456 44.0616 11.8365 44.2655 12.0753L43.8062 12.5274C43.4602 12.1207 42.9834 11.9178 42.3741 11.9178C41.8233 11.9178 41.3474 12.1079 40.9456 12.488C40.5438 12.8681 40.3433 13.3621 40.3433 13.9691C40.3433 14.5762 40.5438 15.0701 40.9456 15.4503C41.3474 15.8304 41.8233 16.0205 42.3741 16.0205C42.9581 16.0205 43.4453 15.8296 43.8349 15.4469C44.0877 15.1977 44.2341 14.851 44.2734 14.4066H42.3741V13.7894H44.9079C44.934 13.9238 44.9454 14.053 44.9454 14.1772Z" stroke="white" stroke-width="0.0357813" stroke-miterlimit="10"/>
<path d="M48.9636 12.0317H46.5823V13.6601H48.73V14.2774H46.5823V15.9058H48.9636V16.5376H45.9103V11.4007H48.9636V12.0317Z" stroke="white" stroke-width="0.0357813" stroke-miterlimit="10"/>
<path d="M51.7971 16.5376H51.125V12.0317H49.6642V11.4007H53.2579V12.0317H51.7971V16.5376Z" stroke="white" stroke-width="0.0357813" stroke-miterlimit="10"/>
<path d="M55.8578 16.5376V11.4007H56.5298V16.5376H55.8578Z" stroke="white" stroke-width="0.0357813" stroke-miterlimit="10"/>
<path d="M59.51 16.5376H58.838V12.0317H57.3772V11.4007H60.9708V12.0317H59.51V16.5376Z" stroke="white" stroke-width="0.0357813" stroke-miterlimit="10"/>
<path d="M67.7735 15.8741C67.2593 16.3929 66.6204 16.6524 65.856 16.6524C65.0916 16.6524 64.4527 16.3929 63.9393 15.8741C63.4251 15.3553 63.1688 14.72 63.1688 13.9692C63.1688 13.2183 63.4251 12.5831 63.9393 12.0643C64.4527 11.5454 65.0916 11.2852 65.856 11.2852C66.616 11.2852 67.254 11.5463 67.77 12.0677C68.286 12.5891 68.544 13.2226 68.544 13.9692C68.544 14.72 68.2869 15.3553 67.7735 15.8741ZM64.4353 15.4435C64.8223 15.8287 65.2955 16.0205 65.856 16.0205C66.4164 16.0205 66.8906 15.8279 67.2767 15.4435C67.6637 15.0582 67.8581 14.5668 67.8581 13.9692C67.8581 13.3716 67.6637 12.8802 67.2767 12.4949C66.8906 12.1096 66.4164 11.9179 65.856 11.9179C65.2955 11.9179 64.8223 12.1105 64.4353 12.4949C64.0491 12.8802 63.8548 13.3716 63.8548 13.9692C63.8548 14.5668 64.0491 15.0582 64.4353 15.4435Z" stroke="white" stroke-width="0.0357813" stroke-miterlimit="10"/>
<path d="M69.4871 16.5376V11.4007H70.3047L72.8463 15.3964H72.875L72.8463 14.4067V11.4007H73.5183V16.5376H72.8166L70.1574 12.3476H70.1286L70.1574 13.3374V16.5376H69.4871Z" stroke="white" stroke-width="0.0357813" stroke-miterlimit="10"/>
<defs>
<filter id="filter0_ii_2473_35497" x="12.5527" y="11.2568" width="21.3281" height="23.8506" filterUnits="userSpaceOnUse" color-interpolation-filters="sRGB">
<feFlood flood-opacity="0" result="BackgroundImageFix"/>
<feBlend mode="normal" in="SourceGraphic" in2="BackgroundImageFix" result="shape"/>
<feColorMatrix in="SourceAlpha" type="matrix" values="0 0 0 0 0 0 0 0 0 0 0 0 0 0 0 0 0 0 127 0" result="hardAlpha"/>
<feOffset dy="-0.139093"/>
<feComposite in2="hardAlpha" operator="arithmetic" k2="-1" k3="1"/>
<feColorMatrix type="matrix" values="0 0 0 0 0 0 0 0 0 0 0 0 0 0 0 0 0 0 0.12 0"/>
<feBlend mode="normal" in2="shape" result="effect1_innerShadow_2473_35497"/>
<feColorMatrix in="SourceAlpha" type="matrix" values="0 0 0 0 0 0 0 0 0 0 0 0 0 0 0 0 0 0 127 0" result="hardAlpha"/>
<feOffset dy="0.139093"/>
<feComposite in2="hardAlpha" operator="arithmetic" k2="-1" k3="1"/>
<feColorMatrix type="matrix" values="0 0 0 0 1 0 0 0 0 1 0 0 0 0 1 0 0 0 0.25 0"/>
<feBlend mode="normal" in2="effect1_innerShadow_2473_35497" result="effect2_innerShadow_2473_35497"/>
</filter>
<filter id="filter1_i_2473_35497" x="12.9805" y="23.1816" width="15.4121" height="11.9258" filterUnits="userSpaceOnUse" color-interpolation-filters="sRGB">
<feFlood flood-opacity="0" result="BackgroundImageFix"/>
<feBlend mode="normal" in="SourceGraphic" in2="BackgroundImageFix" result="shape"/>
<feColorMatrix in="SourceAlpha" type="matrix" values="0 0 0 0 0 0 0 0 0 0 0 0 0 0 0 0 0 0 127 0" result="hardAlpha"/>
<feOffset dy="-0.139093"/>
<feComposite in2="hardAlpha" operator="arithmetic" k2="-1" k3="1"/>
<feColorMatrix type="matrix" values="0 0 0 0 0 0 0 0 0 0 0 0 0 0 0 0 0 0 0.08 0"/>
<feBlend mode="normal" in2="shape" result="effect1_innerShadow_2473_35497"/>
</filter>
<linearGradient id="paint0_linear_2473_35497" x1="23.4779" y1="12.7112" x2="7.91624" y2="28.2123" gradientUnits="userSpaceOnUse">
<stop stop-color="#00A0FF"/>
<stop offset="0.0066" stop-color="#00A1FF"/>
<stop offset="0.2601" stop-color="#00BEFF"/>
<stop offset="0.5122" stop-color="#00D2FF"/>
<stop offset="0.7604" stop-color="#00DFFF"/>
<stop offset="1" stop-color="#00E3FF"/>
</linearGradient>
<linearGradient id="paint1_linear_2473_35497" x1="34.5922" y1="23.1819" x2="12.2429" y2="23.1819" gradientUnits="userSpaceOnUse">
<stop stop-color="#FFE000"/>
<stop offset="0.4087" stop-color="#FFBD00"/>
<stop offset="0.7754" stop-color="#FFA500"/>
<stop offset="1" stop-color="#FF9C00"/>
</linearGradient>
<linearGradient id="paint2_linear_2473_35497" x1="26.2742" y1="25.3087" x2="5.17068" y2="46.3302" gradientUnits="userSpaceOnUse">
<stop stop-color="#FF3A44"/>
<stop offset="1" stop-color="#C31162"/>
</linearGradient>
<linearGradient id="paint3_linear_2473_35497" x1="10.0814" y1="4.79909" x2="19.5047" y2="14.1858" gradientUnits="userSpaceOnUse">
<stop stop-color="#32A071"/>
<stop offset="0.0685" stop-color="#2DA771"/>
<stop offset="0.4762" stop-color="#15CF74"/>
<stop offset="0.8009" stop-color="#06E775"/>
<stop offset="1" stop-color="#00F076"/>
</linearGradient>
</defs>
</svg>
